<svg width="148" height="133" viewBox="0 0 148 133" fill="none" xmlns="http://www.w3.org/2000/svg">
<g id="AGENDA">
<path id="Vector" d="M19.4952 0.394492C18.0264 0.845339 16.4802 2.02881 15.7072 3.26864C15.166 4.11398 15.0114 4.95932 15.0114 7.72076V11.1585L19.5725 11.2712C24.9068 11.3839 26.0664 11.722 28.6949 13.8072C31.1687 15.836 32.0191 17.5267 32.0191 20.9644C32.0191 23.5004 31.9418 24.0076 31.0141 25.3038C29.7772 27.2199 27.3806 29.0797 25.216 29.8686C23.6699 30.4322 22.8968 30.4886 19.2633 30.4886H15.0114V35.9551V41.4216L19.2633 41.5343C24.1337 41.647 25.9118 42.0979 28.3083 43.8449C32.7922 47.1136 33.5652 53.1436 30.0091 57.2013C28.5402 58.8919 26.3756 60.1881 24.211 60.639C23.1287 60.8644 20.9641 61.0335 18.7222 61.0335H15.0114V66.5V71.9665H18.8768C23.3606 71.9665 25.3706 72.361 27.4579 73.6572C30.7822 75.7424 32.3283 78.7292 32.0964 82.3924C31.8645 86.2246 29.3906 89.2678 25.4479 90.6767C23.5925 91.353 22.9741 91.4093 19.186 91.522L14.9341 91.5784V97.0449V102.511H19.186C22.8195 102.511 23.5925 102.568 25.216 103.131C27.6125 103.92 29.5452 105.386 30.8595 107.471C31.8645 109.049 31.9418 109.331 31.9418 112.148C31.9418 114.91 31.8645 115.304 30.9368 116.713C29.6999 118.686 27.4579 120.376 25.1387 121.165C23.5925 121.729 22.8195 121.785 19.186 121.785H14.9341V125.223C14.9341 128.041 15.0887 128.886 15.6299 129.731C16.4029 130.971 18.2583 132.324 19.7272 132.718C20.4229 132.944 39.4406 133 81.4187 133C139.709 133 142.183 133 143.574 132.493C145.352 131.929 147.053 130.464 147.594 129.111C148.135 127.703 148.135 5.29746 147.594 3.88856C147.053 2.59237 145.352 1.12712 143.651 0.507204C142.26 3.35908e-07 141.255 0 81.3414 0C31.7872 0.0563559 20.3456 0.112712 19.4952 0.394492Z" fill="#EBEBEB"/>
<path id="Vector_2" d="M3.87906 16.174C1.48252 17.0757 0.0136719 18.9355 0.0136719 20.9079C0.0136719 22.8804 1.55983 24.7401 3.87906 25.6418L5.81175 26.3745H14.7021C21.9691 26.3745 23.9018 26.3181 24.9841 25.98C31.0141 24.1202 31.0141 17.6393 24.9841 15.8359C23.9018 15.4978 21.9691 15.4414 14.7021 15.4414H5.81175L3.87906 16.174Z" fill="#EBEBEB"/>
<path id="Vector_3" d="M3.95634 46.55C-0.218281 48.128 -1.30059 52.3547 1.94634 55.0034C4.03364 56.7504 4.18826 56.8068 14.7021 56.8068H24.211L25.9117 56.0742C29.9317 54.3271 30.7821 50.4386 27.7671 47.7898C25.6798 46.0428 25.2933 45.9865 14.8567 45.9865C5.88903 45.9301 5.42518 45.9865 3.95634 46.55Z" fill="#EBEBEB"/>
<path id="Vector_4" d="M6.27563 76.3622C6.12102 76.4186 5.50255 76.5313 4.88409 76.5877C4.34294 76.7004 3.26063 77.1512 2.48756 77.6584C-1.37783 80.1944 -0.604754 84.8156 3.87909 86.5627C5.42525 87.1262 5.73448 87.1826 14.7795 87.1826C25.216 87.1826 25.5252 87.1262 27.7672 85.2665C30.7822 82.6741 29.7772 78.5037 25.6799 76.9258C24.211 76.3622 23.7472 76.3059 15.3979 76.2495C10.5276 76.2495 6.50755 76.3059 6.27563 76.3622Z" fill="#EBEBEB"/>
<path id="Vector_5" d="M3.87922 107.302C-0.527319 109.049 -1.3004 113.726 2.48768 116.206C4.6523 117.615 5.57999 117.727 15.63 117.615L24.5977 117.558L26.1438 116.769C31.0142 114.233 30.3185 108.767 24.9069 107.133C23.8246 106.794 21.8919 106.738 14.4704 106.738C5.73461 106.738 5.42537 106.738 3.87922 107.302Z" fill="#EBEBEB"/>
</g>
</svg>
