<svg width="148" height="133" viewBox="0 0 148 133" fill="none" xmlns="http://www.w3.org/2000/svg">
<g id="CARRO">
<path id="CARRO_2" d="M130.898 8.39563C129.253 3.49125 124.649 0 119.222 0H28.7778C23.3511 0 18.8289 3.49125 17.1022 8.39563L0.904444 55.5275C0.328888 57.2731 0 59.1019 0 61.0138V120.531C0 127.431 5.50889 133 12.3333 133C19.1578 133 24.6667 127.431 24.6667 120.531V116.375H123.333V120.531C123.333 127.347 128.842 133 135.667 133C142.409 133 148 127.431 148 120.531V61.0138C148 59.185 147.671 57.2731 147.096 55.5275L130.898 8.39563ZM28.7778 91.4375C21.9533 91.4375 16.4444 85.8681 16.4444 78.9688C16.4444 72.0694 21.9533 66.5 28.7778 66.5C35.6022 66.5 41.1111 72.0694 41.1111 78.9688C41.1111 85.8681 35.6022 91.4375 28.7778 91.4375ZM119.222 91.4375C112.398 91.4375 106.889 85.8681 106.889 78.9688C106.889 72.0694 112.398 66.5 119.222 66.5C126.047 66.5 131.556 72.0694 131.556 78.9688C131.556 85.8681 126.047 91.4375 119.222 91.4375ZM16.4444 49.875L26.8867 18.1212C28.0378 14.7962 31.1622 12.4688 34.6978 12.4688H113.302C116.838 12.4688 119.962 14.7962 121.113 18.1212L131.556 49.875H16.4444Z" fill="#EBEBEB"/>
</g>
</svg>
