<svg width="148" height="133" viewBox="0 0 148 133" fill="none" xmlns="http://www.w3.org/2000/svg">
<g id="ADICIONAR CARRINHO">
<path id="ADICIONAR CARRINHO_2" d="M29.674 94.0047L15.8434 13.301H7.4C5.4374 13.301 3.55518 12.6004 2.16741 11.3533C0.77964 10.1062 0 8.41474 0 6.65107C0 4.88739 0.77964 3.19596 2.16741 1.94885C3.55518 0.701743 5.4374 0.00112602 7.4 0.00112602H22.089C23.8742 -0.0284911 25.6103 0.527021 26.973 1.56386C28.3716 2.62078 29.284 4.10655 29.5334 5.73338L31.9606 19.951H88.8V33.2508H34.2398L43.3418 86.4504H112.894L123.994 53.2007H139.446L125.489 95.0089C125.032 96.3793 124.096 97.5808 122.819 98.435C121.542 99.2891 119.992 99.7504 118.4 99.7503H37.1184C35.2826 99.7807 33.5006 99.1923 32.1234 98.1011C30.7817 97.0465 29.9092 95.5917 29.6666 94.0047H29.674ZM59.2 119.7C59.2 123.227 57.6407 126.61 54.8652 129.105C52.0896 131.599 48.3252 133 44.4 133C40.4748 133 36.7104 131.599 33.9348 129.105C31.1593 126.61 29.6 123.227 29.6 119.7C29.6 116.173 31.1593 112.79 33.9348 110.296C36.7104 107.801 40.4748 106.4 44.4 106.4C48.3252 106.4 52.0896 107.801 54.8652 110.296C57.6407 112.79 59.2 116.173 59.2 119.7ZM125.8 119.7C125.8 123.227 124.241 126.61 121.465 129.105C118.69 131.599 114.925 133 111 133C107.075 133 103.31 131.599 100.535 129.105C97.7593 126.61 96.2 123.227 96.2 119.7C96.2 116.173 97.7593 112.79 100.535 110.296C103.31 107.801 107.075 106.4 111 106.4C114.925 106.4 118.69 107.801 121.465 110.296C124.241 112.79 125.8 116.173 125.8 119.7ZM125.8 0.00112602C127.763 0.00112602 129.645 0.701743 131.033 1.94885C132.42 3.19596 133.2 4.88739 133.2 6.65107V13.301H140.6C142.563 13.301 144.445 14.0016 145.833 15.2487C147.22 16.4958 148 18.1873 148 19.951C148 21.7146 147.22 23.4061 145.833 24.6532C144.445 25.9003 142.563 26.6009 140.6 26.6009H133.2V33.2508C133.2 35.0145 132.42 36.706 131.033 37.9531C129.645 39.2002 127.763 39.9008 125.8 39.9008C123.837 39.9008 121.955 39.2002 120.567 37.9531C119.18 36.706 118.4 35.0145 118.4 33.2508V26.6009H111C109.037 26.6009 107.155 25.9003 105.767 24.6532C104.38 23.4061 103.6 21.7146 103.6 19.951C103.6 18.1873 104.38 16.4958 105.767 15.2487C107.155 14.0016 109.037 13.301 111 13.301H118.4V6.65107C118.4 4.88739 119.18 3.19596 120.567 1.94885C121.955 0.701743 123.837 0.00112602 125.8 0.00112602Z" fill="#EBEBEB"/>
</g>
</svg>
