<svg width="148" height="133" viewBox="0 0 148 133" fill="none" xmlns="http://www.w3.org/2000/svg">
<g id="CONFIGURA&#195;&#135;&#195;&#149;ES">
<path id="CONFIGURA&#195;&#135;&#195;&#149;ES_2" d="M97.0094 0C95.8204 0 94.808 0.759001 94.5909 1.8097L93.5021 7.02233C93.2209 8.3745 92.0294 9.38398 90.5247 9.66328C89.1237 9.92485 87.7426 10.2516 86.4008 10.6417C84.9454 11.0673 83.3601 10.7311 82.3635 9.68926L78.5383 5.67155C77.7637 4.86025 76.4571 4.66754 75.426 5.20397L72.574 6.68464C71.5478 7.21664 71.0809 8.33654 71.4755 9.3429L73.4315 14.3391C73.9396 15.6336 73.4727 17.0408 72.3331 17.9585C71.2724 18.8141 70.2693 19.7155 69.3172 20.6687C68.296 21.6928 66.7301 22.1211 65.2896 21.6645L59.7203 19.898C58.6004 19.5434 57.3639 19.9586 56.7719 20.8852L55.1146 23.4568C54.5226 24.379 54.7467 25.5576 55.6445 26.2536L56.1263 26.626C61.9624 26.7146 66.9553 30.4661 68.0357 35.6398L68.3344 37.0512L69.3654 35.9602C71.6298 33.5928 74.8 32.3055 78.0758 32.1503C82.496 26.1432 90.058 22.1667 98.6667 22.1667C112.288 22.1667 123.333 32.0929 123.333 44.3333C123.333 52.0695 118.908 58.8652 112.224 62.8286C112.051 65.7724 110.619 68.6258 107.984 70.6563L106.77 71.5827L108.341 71.8512C114.098 72.8221 118.272 77.3089 118.371 82.5535L118.785 82.9865C119.56 83.7978 120.867 83.9991 121.898 83.4627L124.759 81.9734C125.786 81.4414 126.252 80.3301 125.858 79.3238L123.892 74.3189C123.384 73.0244 123.861 71.6172 125 70.6995C126.061 69.8439 127.064 68.9425 128.016 67.9893C129.037 66.9652 130.603 66.5456 132.044 67.0022L137.603 68.76C138.723 69.1146 139.969 68.6994 140.561 67.7729L142.209 65.2012C142.801 64.279 142.587 63.1091 141.689 62.413L137.218 58.9668C136.059 58.0713 135.684 56.6466 136.158 55.3387C136.592 54.1329 136.956 52.9005 137.247 51.6414C137.558 50.2937 138.681 49.223 140.186 48.9658L145.986 47.9787C147.155 47.7969 148 46.8911 148 45.8227V42.844C148 41.7756 147.155 40.8657 145.986 40.6706L140.186 39.6922C138.681 39.4395 137.558 38.3688 137.247 37.0166C136.956 35.7575 136.592 34.5165 136.158 33.3106C135.684 32.0028 136.059 30.5781 137.218 29.6826L141.689 26.245C142.592 25.549 142.806 24.3747 142.209 23.4482L140.561 20.8852C139.969 19.963 138.723 19.5434 137.603 19.898L132.044 21.6558C130.603 22.1124 129.037 21.6928 128.016 20.6687C127.064 19.7155 126.061 18.8141 125 17.9585C123.861 17.0408 123.384 15.6336 123.892 14.3391L125.858 9.33424C126.252 8.32788 125.79 7.21664 124.759 6.68464L121.898 5.19531C120.872 4.66331 119.56 4.86468 118.785 5.67155L114.96 9.68926C113.964 10.7311 112.378 11.0673 110.923 10.6417C109.581 10.2516 108.2 9.92485 106.799 9.66328C105.299 9.38398 104.108 8.36584 103.822 7.01367L102.733 1.80104C102.526 0.754775 101.513 0 100.324 0H97.0094ZM52.6094 35.4667C51.4204 35.4667 50.408 36.2214 50.1909 37.2677L49.2755 41.6491C48.8957 43.4712 47.2802 44.8139 45.2576 45.1819C43.5753 45.4878 41.9229 45.8765 40.3146 46.3508C38.361 46.9272 36.2171 46.4962 34.8802 45.0953L31.6716 41.727C30.8971 40.9202 29.5855 40.7274 28.5594 41.2594L25.7073 42.7401C24.6762 43.2721 24.2142 44.392 24.6089 45.3984L26.2661 49.6152C26.9469 51.362 26.2973 53.2404 24.763 54.4729C23.4952 55.4925 22.2891 56.5719 21.1594 57.7113C19.7879 59.09 17.6976 59.6738 15.7539 59.062L11.0518 57.5814C9.93196 57.2267 8.69539 57.6464 8.10339 58.5685L6.44609 61.1315C5.84916 62.0581 6.07324 63.2323 6.97604 63.9283L10.7242 66.8117C12.2832 68.0132 12.7627 69.9397 12.1214 71.6953C11.5935 73.1406 11.161 74.6255 10.8206 76.1373C10.4111 77.955 8.91692 79.4067 6.88932 79.748L2.0138 80.5706C0.844602 80.7657 0 81.6756 0 82.744V85.7227C0 86.7911 0.8399 87.701 2.00417 87.896L6.87969 88.7186C8.90729 89.06 10.4015 90.5117 10.8109 92.3294C11.1513 93.8456 11.5839 95.3261 12.1117 96.7714C12.7531 98.527 12.2735 100.454 10.7146 101.655L6.96641 104.538C6.06854 105.234 5.85409 106.413 6.44609 107.335L8.09375 109.898C8.68575 110.825 9.93196 111.24 11.0518 110.885L15.7443 109.396C17.688 108.784 19.7783 109.368 21.1497 110.747C22.2844 111.886 23.4855 112.97 24.7534 113.985C26.2877 115.218 26.9373 117.096 26.2565 118.843L24.6089 123.068C24.2142 124.075 24.6812 125.186 25.7073 125.718L28.5594 127.207C29.5904 127.744 30.8971 127.542 31.6716 126.731L34.8802 123.363C36.2171 121.962 38.361 121.531 40.3146 122.107C41.9229 122.582 43.5753 122.97 45.2576 123.276C47.2802 123.644 48.8957 124.987 49.2755 126.809L50.1909 131.19C50.408 132.241 51.4204 133 52.6094 133H55.924C57.1129 133 58.1256 132.241 58.3328 131.199L59.2482 126.818C59.628 124.995 61.2435 123.653 63.2661 123.285C64.9533 122.979 66.6008 122.59 68.2091 122.116C70.1627 121.539 72.3066 121.97 73.6435 123.371L76.8521 126.74C77.6266 127.547 78.9286 127.748 79.9547 127.216L82.8164 125.727C83.8475 125.195 84.3095 124.083 83.9148 123.077L82.2672 118.851C81.5864 117.105 82.236 115.226 83.7703 113.994C85.0382 112.974 86.2442 111.895 87.374 110.755C88.7454 109.377 90.8406 108.793 92.7794 109.405L97.4815 110.885C98.6014 111.24 99.8379 110.82 100.43 109.898L102.087 107.335C102.684 106.409 102.46 105.234 101.557 104.538L97.8091 101.655C96.2502 100.454 95.7706 98.527 96.412 96.7714C96.9398 95.3261 97.3724 93.8411 97.7128 92.3294C98.1222 90.5117 99.6164 89.06 101.644 88.7186L106.52 87.896C107.689 87.701 108.533 86.7911 108.533 85.7227V82.744C108.533 81.6756 107.689 80.7699 106.529 80.5793L101.654 79.7567C99.626 79.4153 98.1319 77.955 97.7224 76.1373C97.382 74.6255 96.9495 73.1406 96.4216 71.6953C95.7803 69.9397 96.2598 68.0218 97.8188 66.8204L101.567 63.937C102.465 63.2409 102.689 62.0623 102.097 61.1402L100.44 58.5685C99.8476 57.6419 98.611 57.2267 97.4911 57.5814L92.7891 59.0707C90.8453 59.6825 88.7551 59.0987 87.3836 57.7199C86.2489 56.5806 85.0478 55.4967 83.7799 54.4815C82.2457 53.249 81.596 51.3706 82.2768 49.6239L83.9245 45.3984C84.3191 44.392 83.8522 43.2808 82.826 42.7488L79.974 41.2594C78.9429 40.723 77.6363 40.9244 76.8617 41.7357L73.6531 45.104C72.3162 46.5049 70.1724 46.9358 68.2188 46.3595C66.6105 45.8851 64.958 45.4965 63.2758 45.1906C61.2531 44.8226 59.6377 43.4798 59.2578 41.6577L58.3424 37.2764C58.1254 36.2257 57.1129 35.4667 55.924 35.4667H52.6094ZM98.6667 39.9C97.3583 39.9 96.1035 40.3671 95.1783 41.1985C94.2531 42.0299 93.7333 43.1575 93.7333 44.3333C93.7333 45.5091 94.2531 46.6368 95.1783 47.4682C96.1035 48.2996 97.3583 48.7667 98.6667 48.7667C99.9751 48.7667 101.23 48.2996 102.155 47.4682C103.08 46.6368 103.6 45.5091 103.6 44.3333C103.6 43.1575 103.08 42.0299 102.155 41.1985C101.23 40.3671 99.9751 39.9 98.6667 39.9ZM54.2667 57.6333C70.6157 57.6333 83.8667 69.5413 83.8667 84.2333C83.8667 98.9254 70.6157 110.833 54.2667 110.833C37.9176 110.833 24.6667 98.9254 24.6667 84.2333C24.6667 69.5413 37.9176 57.6333 54.2667 57.6333ZM54.2667 75.3667C48.8153 75.3667 44.4 79.3345 44.4 84.2333C44.4 89.1322 48.8153 93.1 54.2667 93.1C59.718 93.1 64.1333 89.1322 64.1333 84.2333C64.1333 79.3345 59.718 75.3667 54.2667 75.3667Z" fill="#EBEBEB"/>
</g>
</svg>
