<svg width="148" height="133" viewBox="0 0 148 133" fill="none" xmlns="http://www.w3.org/2000/svg">
<g id="FINANCEIRO">
<path id="FINANCEIRO_2" d="M72.767 60.4042C58.7686 57.1346 54.267 53.7542 54.267 48.4896C54.267 42.4492 60.4953 38.2375 70.917 38.2375C81.8936 38.2375 85.9636 42.9479 86.3336 49.875H99.962C99.5303 40.3433 93.0553 31.5875 80.167 28.7613V16.625H61.667V28.595C49.7036 30.9225 40.0836 37.905 40.0836 48.6004C40.0836 61.4017 51.862 67.7746 69.067 71.4875C84.4836 74.8125 87.567 79.6892 87.567 84.8429C87.567 88.6667 84.5453 94.7625 70.917 94.7625C58.2136 94.7625 53.2186 89.6642 52.5403 83.125H38.9736C39.7136 95.2613 49.827 102.078 61.667 104.35V116.375H80.167V104.46C92.192 102.41 101.75 96.1479 101.75 84.7875C101.75 69.0492 86.7653 63.6738 72.767 60.4042Z" fill="#EBEBEB"/>
</g>
</svg>
