<svg width="148" height="133" viewBox="0 0 148 133" fill="none" xmlns="http://www.w3.org/2000/svg">
<g id="Group">
<path id="Vector" d="M54.8384 93.377C48.0069 93.377 42.4862 102.256 42.4862 113.204C42.4862 124.12 48.0069 133 54.8384 133C61.6698 133 67.1906 124.12 67.1906 113.204C67.1903 102.256 61.6698 93.377 54.8384 93.377ZM54.8384 123.102C51.4225 123.102 48.662 118.646 48.662 113.204C48.662 107.73 51.4225 103.306 54.8384 103.306C58.254 103.306 61.0144 107.73 61.0144 113.204C61.0142 118.646 58.254 123.102 54.8384 123.102ZM148 78.7317V99.8694C148 105.142 145.333 109.417 142.042 109.417H135.668C134.516 96.7499 127.704 87.0114 119.483 87.0114C111.281 87.0114 104.469 96.7503 103.318 109.417H71.0074C69.8555 96.7499 63.0439 87.0114 54.8422 87.0114C46.6406 87.0114 39.8289 96.7503 38.6773 109.417H30.694C27.4037 109.417 24.7366 105.142 24.7366 99.8694V78.7317H148ZM119.499 93.377C112.667 93.377 107.127 102.256 107.127 113.204C107.127 124.12 112.667 133 119.499 133C126.31 133 131.851 124.12 131.851 113.204C131.851 102.256 126.31 93.377 119.499 93.377ZM119.499 123.102C116.083 123.102 113.323 118.646 113.323 113.204C113.323 107.73 116.083 103.306 119.499 103.306C122.894 103.306 125.675 107.73 125.675 113.204C125.675 118.646 122.894 123.102 119.499 123.102ZM145.653 57.4455L122.239 20.3366C120.75 17.9814 118.744 16.6448 116.659 16.6448H104.843V9.54745C104.843 4.26467 102.182 0 98.8855 0H30.6899C27.4131 0 24.7324 4.26505 24.7324 9.54745V11.0434L0.556209 15.5088L43.3954 24.449L0 31.3576L43.2426 41.2104L0 47.2191L24.7339 54.695L24.7322 73.4539H147.996V66.4837C147.996 63.0783 147.142 59.8325 145.653 57.4455ZM135.445 58.6865H112.786C112.27 58.6865 111.853 58.0183 111.853 57.1909V29.1524C111.853 28.3249 112.27 27.6564 112.786 27.6564H117.096C117.334 27.6564 117.572 27.8157 117.751 28.0703L136.081 56.1088C136.696 57.0316 136.279 58.6865 135.445 58.6865Z" fill="#EBEBEB"/>
</g>
</svg>
