<svg width="148" height="133" viewBox="0 0 148 133" fill="none" xmlns="http://www.w3.org/2000/svg">
<g id="Group">
<g id="Group_2">
<path id="Vector" d="M17.5783 11.8301L0 23.5476V73.1214C0 113.682 0.0845098 122.921 0.507065 123.991C2.19729 128.216 7.01442 131.483 13.4373 132.61C16.0571 133.061 130.823 133.173 134.035 132.666C140.542 131.709 146.12 127.991 147.556 123.653C148.148 121.681 148.148 11.2668 147.556 9.29509C146.204 5.01371 141.049 1.52101 134.542 0.338003C133.02 0.0563341 123.302 0 83.9195 0H35.2411L17.5783 11.8301ZM76.736 14.1961C78.3418 14.7595 78.8488 15.4918 79.1024 17.6888L79.2714 19.6042L81.6377 19.9422C82.9054 20.1112 85.1026 20.5619 86.6238 20.8999C95.582 23.1532 102.85 29.0683 103.019 34.1383C103.104 35.8847 102.174 36.8987 100.061 37.462C97.1877 38.138 94.6524 37.0114 93.9763 34.7017C92.7086 30.533 87.3844 27.0966 80.8771 26.0826L79.1869 25.8572V28.5049C79.1869 29.9696 79.1024 33.2933 78.9333 35.8847L78.6798 40.5604L79.7784 40.7294C96.0046 42.9827 102.512 46.8698 102.512 54.4749C102.512 58.6999 100.822 61.6293 96.7652 64.5023C92.9622 67.2063 87.2999 68.8963 80.201 69.5723L78.3418 69.7413V71.6003C78.3418 73.6847 77.8347 74.3607 75.9754 75.0367C74.5388 75.5437 73.1021 75.5437 71.6654 75.0367C69.9752 74.4734 69.2991 73.403 69.2991 71.3187V69.516L67.5243 69.347C63.9749 69.009 59.7493 68.1076 56.5379 67.0936C50.7066 65.2346 46.7346 61.8546 45.2979 57.5169C44.7064 55.8269 44.7064 55.6579 45.3824 54.7565C45.8895 54.0805 46.6501 53.5735 47.6642 53.2918C49.1009 52.8412 49.3545 52.8412 50.7911 53.1792C52.6504 53.6298 53.9181 54.7565 54.2561 56.2775C54.5941 57.7986 56.2844 59.7702 57.8056 60.5589C58.5662 60.8969 60.0029 61.5166 61.186 61.8546C63.2143 62.4743 68.7075 63.4883 69.0455 63.2629C69.13 63.2066 69.2991 59.3196 69.3836 54.6439L69.6371 46.1938L67.6089 46.0248C63.6368 45.6868 58.3126 44.6164 55.6083 43.6587C51.6363 42.3067 47.9178 39.7717 46.7346 37.7437C44.1148 33.1243 45.974 28.1669 51.7208 24.5616C55.6928 22.0265 60.3409 20.6182 66.6792 19.9422L69.6371 19.6042L69.8906 17.6325C70.1442 15.8862 70.3132 15.6045 71.4119 14.8158C72.933 13.6891 74.7923 13.5201 76.736 14.1961ZM116.879 86.2472C118.823 87.5428 118.315 89.7962 115.78 90.6412C114.597 91.0355 34.1425 91.0355 32.3677 90.6412C29.6634 90.0215 28.9873 87.6555 31.1001 86.2472L32.1987 85.5148H74.0317H115.78L116.879 86.2472ZM116.879 100.5C118.4 101.683 118.4 103.091 116.879 104.218L115.78 105.063H74.1162C32.9593 105.063 32.4523 105.063 31.6071 104.556C30.424 103.88 29.6634 102.64 29.9169 101.795C30.1705 101.007 31.7762 99.88 32.9593 99.7109C33.3819 99.6546 52.2278 99.5983 74.7078 99.6546H115.78L116.879 100.5ZM116.118 114.132C117.555 114.639 118.062 115.259 118.062 116.611C118.062 117.456 117.808 117.85 116.963 118.47L115.865 119.202H74.0317H32.3677L31.3536 118.583C29.3253 117.4 29.4099 115.146 31.6916 114.245C32.8748 113.738 33.8889 113.738 73.9472 113.738C109.78 113.738 115.104 113.794 116.118 114.132Z" fill="#EBEBEB"/>
<path id="Vector_2" d="M64.82 26.2516C58.2281 27.5473 54.8477 29.9133 54.8477 33.237C54.8477 35.5467 56.1153 36.7861 59.9183 38.0817C61.186 38.4761 68.1159 39.7718 69.13 39.7718C69.6371 39.7718 69.6371 38.5324 69.6371 32.7864V25.7446H68.3694C67.7778 25.801 66.1721 25.97 64.82 26.2516Z" fill="#EBEBEB"/>
<path id="Vector_3" d="M78.6797 55.0945C78.6797 61.5729 78.7642 63.3756 79.1868 63.3756C80.4544 63.3756 84.7645 62.5306 86.6237 61.9109C90.9338 60.4462 93.1311 58.3055 93.3846 55.0382C93.6381 52.6158 93.2156 51.5455 91.2718 50.2498C89.1591 48.8414 85.2715 47.6584 79.8628 46.9261L78.7642 46.7571V55.0945H78.6797Z" fill="#EBEBEB"/>
</g>
</g>
</svg>
