<svg width="148" height="133" viewBox="0 0 148 133" fill="none" xmlns="http://www.w3.org/2000/svg">
<g id="OPERACIONAL ">
<path id="Vector" d="M55.4998 83.125C39.0348 83.125 6.1665 90.5508 6.1665 105.292V116.375H104.833V105.292C104.833 90.5508 71.9648 83.125 55.4998 83.125Z" fill="#EBEBEB"/>
<path id="Vector_2" d="M136.283 37.905C136.344 37.2954 136.406 36.6858 136.406 36.0208C136.406 35.3558 136.344 34.7463 136.221 34.1367L140.784 30.9225C141.216 30.6454 141.278 30.0913 141.031 29.7033L136.714 22.9979C136.468 22.5546 135.851 22.4438 135.419 22.5546L130.116 24.4942C129.006 23.7183 127.773 23.1088 126.478 22.61L125.676 17.4563C125.553 16.9575 125.121 16.625 124.566 16.625H115.933C115.378 16.625 114.946 16.9575 114.884 17.4563L114.083 22.61C112.788 23.1088 111.554 23.7738 110.444 24.4942L105.079 22.5546C104.586 22.3883 104.031 22.5546 103.784 22.9979L99.4675 29.7033C99.2208 30.1467 99.2825 30.6454 99.7142 30.9225L104.278 34.1367C104.154 34.7463 104.093 35.4113 104.093 36.0208C104.093 36.6304 104.154 37.2954 104.278 37.905L99.7142 41.1192C99.2825 41.3963 99.2208 41.9504 99.4675 42.3383L103.784 49.0438C104.031 49.4871 104.648 49.5979 105.079 49.4871L110.444 47.5475C111.554 48.3233 112.788 48.9329 114.083 49.4317L114.884 54.5854C114.946 55.0842 115.378 55.4167 115.933 55.4167H124.566C125.121 55.4167 125.553 55.0842 125.614 54.5854L126.416 49.4317C127.711 48.9329 128.944 48.2679 130.054 47.5475L135.419 49.4871C135.913 49.6533 136.468 49.4871 136.714 49.0438L141.031 42.3383C141.278 41.895 141.216 41.3963 140.784 41.1192L136.283 37.905ZM120.249 42.9479C115.994 42.9479 112.541 39.8446 112.541 36.0208C112.541 32.1971 115.994 29.0938 120.249 29.0938C124.504 29.0938 127.958 32.1971 127.958 36.0208C127.958 39.8446 124.504 42.9479 120.249 42.9479Z" fill="#EBEBEB"/>
<path id="Vector_3" d="M122.84 64.7267L119.756 59.9055C119.571 59.573 119.14 59.4622 118.831 59.573L115.008 60.9584C114.206 60.4042 113.343 59.9609 112.418 59.6284L111.863 55.9709C111.74 55.6384 111.37 55.4167 111 55.4167H104.833C104.463 55.4167 104.155 55.6384 104.093 56.0263L103.538 59.6838C102.613 60.0163 101.75 60.5151 100.948 61.0138L97.1246 59.6284C96.7546 59.5176 96.3846 59.6284 96.1996 59.9609L93.1163 64.7822C92.9313 65.1147 92.9929 65.4472 93.3013 65.6688L96.5696 67.9409C96.5079 68.3842 96.4463 68.8276 96.4463 69.2709C96.4463 69.7142 96.5079 70.213 96.5696 70.6009L93.3013 72.873C92.9929 73.0947 92.9313 73.4826 93.1163 73.7597L96.1996 78.5809C96.3846 78.9134 96.8163 79.0242 97.1246 78.9134L100.948 77.528C101.75 78.0822 102.613 78.5255 103.538 78.858L104.093 82.5155C104.155 82.9034 104.463 83.1251 104.833 83.1251H111C111.37 83.1251 111.74 82.9034 111.74 82.5155L112.295 78.858C113.22 78.5255 114.083 78.0267 114.885 77.528L118.708 78.9134C119.078 79.0242 119.448 78.9134 119.633 78.5809L122.716 73.7597C122.901 73.4272 122.84 73.0947 122.531 72.873L119.325 70.6009C119.386 70.1576 119.448 69.7142 119.448 69.2709C119.448 68.8276 119.386 68.3288 119.325 67.9409L122.593 65.6688C122.901 65.4472 122.963 65.0592 122.84 64.7267ZM107.916 73.8705C105.08 73.8705 102.798 71.7647 102.798 69.2709C102.798 66.7217 105.141 64.6713 107.916 64.6713C110.691 64.6713 113.035 66.7772 113.035 69.2709C113.035 71.8201 110.753 73.8705 107.916 73.8705Z" fill="#EBEBEB"/>
<path id="Vector_4" d="M29.2302 49.8751H81.8318C83.4968 49.8751 84.8535 48.6559 84.8535 47.1597V47.0488C84.8535 45.5526 83.4968 44.3334 81.8318 44.3334H80.1668C80.1668 36.1317 75.1718 29.0938 67.8335 25.2147V30.4792C67.8335 32.0309 66.4768 33.2501 64.7502 33.2501C63.0235 33.2501 61.6668 32.0309 61.6668 30.4792V22.9426C59.6935 22.4992 57.6585 22.1667 55.5002 22.1667C53.3418 22.1667 51.3068 22.4992 49.3335 22.9426V30.4792C49.3335 32.0309 47.9768 33.2501 46.2502 33.2501C44.5235 33.2501 43.1668 32.0309 43.1668 30.4792V25.2147C35.8285 29.0938 30.8335 36.1317 30.8335 44.3334H29.2302C27.5652 44.3334 26.2085 45.5526 26.2085 47.0488V47.2151C26.2085 48.6559 27.5652 49.8751 29.2302 49.8751Z" fill="#EBEBEB"/>
<path id="Vector_5" d="M55.5001 72.0417C66.9701 72.0417 76.5284 64.9484 79.3034 55.4167H31.6968C34.4718 64.9484 44.0301 72.0417 55.5001 72.0417Z" fill="#EBEBEB"/>
</g>
</svg>
