<svg width="148" height="133" viewBox="0 0 148 133" fill="none" xmlns="http://www.w3.org/2000/svg">
<path d="M32.6604 0.362707C32.284 0.475349 31.7821 0.925917 31.4057 1.32016L30.7783 1.99602V31.6772V61.4146L31.9076 61.2457C35.9854 60.6825 41.0042 60.9078 45.6467 61.7526C52.7985 63.1043 59.9504 66.3709 65.7848 70.9892L68.4197 73.0731L69.1725 72.5662C69.8626 72.0593 70.3018 72.003 76.8263 72.003C86.864 72.003 86.2994 71.5524 86.2994 80.4511C86.2994 85.8016 86.2366 86.7028 85.7975 87.3786C85.0446 88.505 83.7899 88.8993 80.9668 88.8993C79.5866 88.8993 78.4574 88.8993 78.4574 88.9556C78.4574 89.0119 78.7083 90.082 79.022 91.3774C79.4612 93.1797 80.1513 98.3049 80.1513 99.6003C80.1513 99.7129 81.0296 99.8256 82.1588 99.8256C83.9781 99.8256 84.2918 99.8819 85.1074 100.558L86.0484 101.29V108.105V114.92L85.1074 115.652L84.1663 116.384H79.9631H75.7598L75.0069 117.679C72.0584 122.861 67.2277 127.761 61.456 131.534L59.1976 132.999H102.234C149.725 132.999 146.714 133.111 147.529 131.309C148.157 129.957 148.157 3.06611 147.529 1.65809C146.714 -0.144182 151.105 -0.0315397 89.1852 0.0247813C58.4447 0.137423 33.0368 0.250065 32.6604 0.362707ZM135.798 22.2152L135.86 33.3105H89.4361H43.0118V22.1589V11.0074L89.3734 11.0637L135.735 11.12L135.798 22.2152ZM59.7622 44.7436C61.6443 45.5885 61.8325 46.208 61.707 53.0791C61.6443 59.6687 61.5815 59.894 60.0131 60.7388C59.323 61.0767 58.1938 61.133 52.3594 61.133C42.4471 61.133 42.949 61.5836 42.949 52.6849C42.949 45.8701 43.0745 45.4195 44.7684 44.6873C46.274 44.0678 58.3193 44.0678 59.7622 44.7436ZM84.5428 44.6873C86.2994 45.4195 86.4248 45.8701 86.4248 52.6849C86.4248 61.5836 86.9267 61.133 77.0145 61.133C69.4235 61.133 68.9216 61.0767 68.106 59.4434C67.7296 58.7112 67.6669 57.5848 67.6669 52.7412C67.6669 44.0115 67.4159 44.2368 77.14 44.2368C82.4725 44.2368 83.7272 44.3494 84.5428 44.6873ZM109.072 44.631C110.954 45.3068 110.954 45.4758 110.954 52.7412V59.3308L110.139 60.1756L109.323 61.0204H101.732H94.1413L93.3257 60.1756L92.5102 59.3308V52.7412C92.5102 45.4758 92.5102 45.3632 94.3922 44.631C95.5842 44.1241 107.692 44.1241 109.072 44.631ZM133.79 44.7436C135.61 45.5885 135.798 46.2643 135.798 52.7975C135.798 61.5273 136.174 61.133 126.387 61.133C116.475 61.133 116.977 61.5836 116.977 52.6849C116.977 45.8701 117.103 45.4195 118.796 44.6873C120.302 44.0678 132.347 44.0678 133.79 44.7436ZM110.139 73.0168L110.954 73.8616V80.4511C110.954 87.7165 110.954 87.8855 109.072 88.5614C107.692 89.0682 95.7724 89.0682 94.3922 88.5614C92.5102 87.8855 92.5102 87.7165 92.5102 80.3948V73.8053L93.514 72.9041L94.5177 72.003L101.921 72.0593L109.386 72.1156L110.139 73.0168ZM134.104 72.4536C135.923 73.2984 135.86 72.6225 135.86 94.2498C135.86 115.37 135.861 115.089 134.418 116.046C133.853 116.384 132.724 116.44 126.45 116.44H119.11L118.169 115.708L117.228 114.976L117.165 94.7567C117.103 79.6063 117.165 74.3685 117.479 73.8053C117.667 73.411 118.232 72.8478 118.671 72.5662C119.487 72.1156 120.239 72.0593 126.45 72.0593C131.845 72.0593 133.414 72.1156 134.104 72.4536ZM109.512 100.22C110.892 100.896 111.017 101.459 111.017 108.161C111.017 114.863 110.892 115.483 109.512 116.102C108.445 116.609 95.2078 116.666 94.0786 116.159C92.5729 115.539 92.5102 114.976 92.5102 108.105C92.5102 101.403 92.6357 100.896 93.9531 100.22C94.9569 99.6566 108.382 99.6566 109.512 100.22Z" fill="#EBEBEB"/>
<path d="M34.1662 66.7651C26.5752 67.5536 21.6818 69.0743 16.0983 72.4536C13.338 74.1432 8.25637 78.6489 6.43703 81.127C1.60639 87.7165 -0.652092 95.4325 0.163471 102.754C0.916299 108.781 2.79837 113.624 6.43703 118.524C8.25637 121.002 13.338 125.564 16.0983 127.198C23.3757 131.534 32.0959 133.562 40.1261 132.83C49.3482 131.929 56.6255 128.887 62.9618 123.199C75.5717 111.878 77.391 94.5877 67.4161 81.127C65.534 78.6489 60.5152 74.0869 57.7548 72.4536C53.8024 70.0881 49.0973 68.2858 44.5803 67.441C41.3808 66.7651 36.7383 66.4835 34.1662 66.7651ZM40.0633 80.1132L40.1261 82.6477L41.4435 82.9293C44.2039 83.5488 46.7133 85.2384 48.0308 87.2097C48.7836 88.3924 49.4737 90.5326 49.7246 92.3349L49.9128 93.5739H46.0232H42.1336V92.8418C42.1336 91.5464 41.5063 90.1947 40.5652 89.1809C39.6869 88.3361 39.436 88.2234 37.7421 88.1671C36.2365 88.1108 35.7346 88.1671 34.919 88.6177C33.7898 89.2372 33.0997 90.5326 33.0997 91.9969C33.0997 94.3061 34.2917 95.3762 38.5577 97.0095C46.1487 99.9382 48.8463 102.135 49.5364 106.246C50.0383 108.893 49.2855 111.709 47.6543 113.681C46.2742 115.314 43.5138 116.609 40.2515 117.229C39.4987 117.398 39.4987 117.454 39.3732 119.651L39.3105 121.903L37.2402 121.96L35.1072 122.016V119.707V117.398L33.6016 117.116C28.0181 116.102 24.7558 112.779 24.003 107.429L23.8148 106.19H27.7044H31.594V106.866C31.594 109.062 33.2252 111.146 35.3582 111.653C38.9341 112.498 42.0081 110.752 42.0081 107.936C42.0081 105.627 40.4397 104.162 36.6756 102.811C28.269 99.8255 25.4459 97.1221 25.3832 92.0533C25.3832 89.2935 26.0106 87.6602 27.8299 85.8016C29.461 84.1683 32.0959 82.9293 34.1662 82.6477L35.6091 82.4787V79.8879V77.2972L37.7421 77.3535L39.8124 77.4098L40.0633 80.1132Z" fill="#EBEBEB"/>
</svg>
