<svg width="148" height="133" viewBox="0 0 148 133" fill="none" xmlns="http://www.w3.org/2000/svg">
<path d="M39.8433 24.8635H98.1178C100.079 24.8635 101.647 23.7359 101.647 22.27V10.4303C101.647 8.96439 100.079 7.83679 98.1178 7.83679H85.961C85.1767 3.38279 80.0002 0 73.8041 0H64.9414C58.7453 0 53.4904 3.43917 52.7845 7.83679H39.9218C37.961 7.83679 36.3923 8.96439 36.3923 10.4303V22.27C36.3139 23.6795 37.961 24.8635 39.8433 24.8635ZM69.412 7.61128C72.7061 7.61128 75.4512 9.58457 75.4512 12.0653C75.4512 14.4896 72.7845 16.5193 69.412 16.5193C66.1178 16.5193 63.3727 14.546 63.3727 12.0653C63.3727 9.58457 66.1178 7.61128 69.412 7.61128Z" fill="#EBEBEB"/>
<path d="M113.334 82.3708C94.1964 82.3708 78.667 93.7032 78.667 107.685C78.667 121.668 94.1964 133 113.334 133C132.471 133 148 121.668 148 107.685C148 93.7032 132.471 82.3708 113.334 82.3708ZM111.294 121.555C109.177 123.133 105.647 123.133 103.451 121.555L91.3729 112.703C89.2552 111.125 89.2552 108.587 91.3729 107.009C93.4905 105.43 97.0199 105.43 99.216 107.009L107.373 112.985L130.432 96.1839C132.549 94.6053 136.079 94.6053 138.275 96.1839C140.392 97.7625 140.392 100.3 138.275 101.878L111.294 121.555Z" fill="#EBEBEB"/>
<path d="M22.8235 100.469H63.3726C64.7843 95.1691 67.7647 90.264 71.9216 86.0919H22.8235C17.3333 86.0919 12.8627 82.8219 12.8627 78.8189C12.8627 74.8159 17.3333 71.5459 22.8235 71.5459H102.275C105.725 70.9821 109.333 70.7002 113.098 70.7002C123.294 70.7002 132.706 72.899 140.627 76.6765V31.5726C140.627 23.1156 131.216 16.2373 119.686 16.2373H115.294V31.629H23.5294V16.2373H20.9412C9.41177 16.2373 0 23.1156 0 31.5726V111.688C0 120.145 9.41177 127.024 20.9412 127.024H69.9608C66.902 123.359 64.6274 119.3 63.451 114.958H22.8235C17.3333 114.958 12.8627 111.688 12.8627 107.685C12.8627 103.682 17.3333 100.469 22.8235 100.469ZM22.8235 42.6231H117.255C122.745 42.6231 127.216 45.8931 127.216 49.8961C127.216 53.899 122.745 57.1691 117.255 57.1691H22.8235C17.3333 57.1691 12.8627 53.899 12.8627 49.8961C12.8627 45.8931 17.3333 42.6231 22.8235 42.6231Z" fill="#EBEBEB"/>
</svg>
