<svg width="148" height="133" viewBox="0 0 148 133" fill="none" xmlns="http://www.w3.org/2000/svg">
<g id="Relogio">
<path id="Vector" d="M84.2387 0.0257833C47.1203 -1.00846 16.7108 29.2062 16.7108 66.5129H3.6574C0.375811 66.5129 -1.22852 70.5021 1.10505 72.7922L21.4509 93.4771C22.9094 94.9546 25.1701 94.9546 26.6286 93.4771L46.9744 72.7922C49.2351 70.5021 47.6307 66.5129 44.3491 66.5129H31.2957C31.2957 37.7018 54.4856 14.4313 83.0719 14.8007C110.2 15.1701 133.025 38.2928 133.39 65.7741C133.754 94.6591 110.783 118.225 82.3427 118.225C70.6019 118.225 59.7362 114.162 51.1311 107.292C48.2141 105.002 44.1304 105.223 41.5051 107.883C38.4423 110.985 38.6611 116.23 42.0885 118.89C53.173 127.755 67.1015 133 82.3427 133C119.169 133 148.995 102.194 147.975 64.5922C147.027 29.945 118.44 0.986153 84.2387 0.0257833ZM80.5196 36.9631C77.5297 36.9631 75.0503 39.4748 75.0503 42.5037V69.6895C75.0503 72.2751 76.4358 74.713 78.6236 76.0427L101.376 89.7095C104.001 91.2609 107.356 90.3744 108.887 87.7888C110.419 85.1293 109.543 81.7311 106.991 80.1797L85.9889 67.5471V42.4298C85.9889 39.4748 83.5095 36.9631 80.5196 36.9631Z" fill="#EBEBEB"/>
</g>
</svg>
