<svg width="31" height="31" viewBox="0 0 31 31" fill="none" xmlns="http://www.w3.org/2000/svg">
<g id="AGENDA">
<path id="Vector" d="M4.55346 0.588983C4.25573 0.690678 3.94232 0.957627 3.78561 1.23729C3.67592 1.42797 3.64458 1.61864 3.64458 2.24153V3.01695L4.56914 3.04237C5.6504 3.0678 5.88546 3.14407 6.41825 3.61441C6.91971 4.07203 7.09208 4.45339 7.09208 5.22881C7.09208 5.80085 7.07641 5.91525 6.88837 6.20763C6.63764 6.63983 6.15185 7.05932 5.71308 7.23729C5.39967 7.36441 5.24297 7.37712 4.50645 7.37712H3.64458V8.61017V9.84322L4.50645 9.86864C5.49369 9.89407 5.85412 9.99576 6.3399 10.3898C7.24879 11.1271 7.40549 12.4873 6.68465 13.4025C6.38691 13.7839 5.94814 14.0763 5.50936 14.178C5.28998 14.2288 4.8512 14.2669 4.39676 14.2669H3.64458V15.5V16.7331H4.4281C5.33699 16.7331 5.74442 16.822 6.16752 17.1144C6.84135 17.5847 7.15476 18.2585 7.10775 19.0847C7.06074 19.9492 6.55929 20.6356 5.76009 20.9534C5.384 21.1059 5.25864 21.1186 4.49078 21.1441L3.62891 21.1568V22.3898V23.6229H4.49078C5.2273 23.6229 5.384 23.6356 5.71308 23.7627C6.19887 23.9407 6.59063 24.2712 6.85703 24.7415C7.06074 25.0975 7.07641 25.161 7.07641 25.7966C7.07641 26.4195 7.06074 26.5085 6.8727 26.8263C6.62197 27.2712 6.16752 27.6525 5.69741 27.8305C5.384 27.9576 5.2273 27.9703 4.49078 27.9703H3.62891V28.7458C3.62891 29.3814 3.66025 29.572 3.76994 29.7627C3.92665 30.0424 4.30274 30.3475 4.60048 30.4364C4.74151 30.4873 8.59645 30.5 17.1055 30.5C28.9211 30.5 29.4225 30.5 29.7046 30.3856C30.065 30.2585 30.4098 29.928 30.5195 29.6229C30.6291 29.3051 30.6291 1.69492 30.5195 1.37712C30.4098 1.08475 30.065 0.754237 29.7203 0.614407C29.4382 0.5 29.2345 0.5 17.0898 0.5C7.04507 0.512712 4.72584 0.525424 4.55346 0.588983Z" fill="#EBEBEB"/>
<path id="Vector_2" d="M1.38802 4.14841C0.902231 4.3518 0.604492 4.77129 0.604492 5.21621C0.604492 5.66112 0.917902 6.08061 1.38802 6.284L1.77978 6.44926H3.58188C5.05491 6.44926 5.44667 6.43654 5.66606 6.36027C6.88836 5.94078 6.88836 4.47892 5.66606 4.07214C5.44667 3.99587 5.05491 3.98315 3.58188 3.98315H1.77978L1.38802 4.14841Z" fill="#EBEBEB"/>
<path id="Vector_3" d="M1.40339 10.9999C0.557184 11.3558 0.337798 12.3092 0.995958 12.9067C1.41906 13.3007 1.4504 13.3135 3.58159 13.3135H5.50906L5.85381 13.1482C6.66867 12.7541 6.84105 11.877 6.2299 11.2796C5.8068 10.8855 5.72844 10.8728 3.61293 10.8728C1.79515 10.8601 1.70113 10.8728 1.40339 10.9999Z" fill="#EBEBEB"/>
<path id="Vector_4" d="M1.87365 17.7246C1.84231 17.7374 1.71695 17.7628 1.59158 17.7755C1.48189 17.8009 1.2625 17.9026 1.1058 18.017C0.322273 18.589 0.478977 19.6314 1.38787 20.0255C1.70127 20.1526 1.76396 20.1653 3.5974 20.1653C5.71292 20.1653 5.7756 20.1526 6.23004 19.7331C6.84119 19.1484 6.63748 18.2077 5.80694 17.8518C5.5092 17.7246 5.41518 17.7119 3.72277 17.6992C2.73553 17.6992 1.92066 17.7119 1.87365 17.7246Z" fill="#EBEBEB"/>
<path id="Vector_5" d="M1.38803 24.7033C0.494812 25.0974 0.338107 26.1524 1.10596 26.7118C1.54473 27.0296 1.73278 27.055 3.76994 27.0296L5.58772 27.0168L5.90113 26.8389C6.88837 26.2668 6.74733 25.0338 5.6504 24.6652C5.43101 24.5889 5.03925 24.5762 3.53489 24.5762C1.76412 24.5762 1.70144 24.5762 1.38803 24.7033Z" fill="#EBEBEB"/>
</g>
</svg>
