<svg width="31" height="31" viewBox="0 0 31 31" fill="none" xmlns="http://www.w3.org/2000/svg">
<path d="M27.1349 2.39375C26.8016 1.2875 25.8682 0.5 24.7682 0.5H6.4349C5.3349 0.5 4.41823 1.2875 4.06823 2.39375L0.784896 13.025C0.668229 13.4188 0.601562 13.8313 0.601562 14.2625V27.6875C0.601562 29.2437 1.71823 30.5 3.10156 30.5C4.4849 30.5 5.60156 29.2437 5.60156 27.6875V26.75H25.6016V27.6875C25.6016 29.225 26.7182 30.5 28.1016 30.5C29.4682 30.5 30.6016 29.2437 30.6016 27.6875V14.2625C30.6016 13.85 30.5349 13.4188 30.4182 13.025L27.1349 2.39375ZM6.4349 21.125C5.05156 21.125 3.9349 19.8687 3.9349 18.3125C3.9349 16.7563 5.05156 15.5 6.4349 15.5C7.81823 15.5 8.9349 16.7563 8.9349 18.3125C8.9349 19.8687 7.81823 21.125 6.4349 21.125ZM24.7682 21.125C23.3849 21.125 22.2682 19.8687 22.2682 18.3125C22.2682 16.7563 23.3849 15.5 24.7682 15.5C26.1516 15.5 27.2682 16.7563 27.2682 18.3125C27.2682 19.8687 26.1516 21.125 24.7682 21.125ZM3.9349 11.75L6.05156 4.5875C6.2849 3.8375 6.91823 3.3125 7.6349 3.3125H23.5682C24.2849 3.3125 24.9182 3.8375 25.1516 4.5875L27.2682 11.75H3.9349Z" fill="#EBEBEB"/>
</svg>
