<svg width="30" height="31" viewBox="0 0 30 31" fill="none" xmlns="http://www.w3.org/2000/svg">
<g id="Fechar">
<path id="Vector" d="M0 0.5H30V30.5H0V0.5Z" fill="#FF7A00"/>
<path id="Vector_2" d="M22.8742 7.63757C22.3867 7.15007 21.5992 7.15007 21.1117 7.63757L14.9992 13.7376L8.88675 7.62507C8.39925 7.13757 7.61175 7.13757 7.12425 7.62507C6.63675 8.11257 6.63675 8.90007 7.12425 9.38757L13.2367 15.5001L7.12425 21.6126C6.63675 22.1001 6.63675 22.8876 7.12425 23.3751C7.61175 23.8626 8.39925 23.8626 8.88675 23.3751L14.9992 17.2626L21.1117 23.3751C21.5992 23.8626 22.3867 23.8626 22.8742 23.3751C23.3617 22.8876 23.3617 22.1001 22.8742 21.6126L16.7617 15.5001L22.8742 9.38757C23.3492 8.91257 23.3492 8.11257 22.8742 7.63757Z" fill="#EBEBEB"/>
</g>
</svg>
