<svg width="31" height="31" viewBox="0 0 31 31" fill="none" xmlns="http://www.w3.org/2000/svg">
<g id="estoque">
<path id="Vector" d="M18.6905 0.744178C18.8468 0.900351 18.9345 1.11214 18.9345 1.33297C18.9345 1.55379 18.8468 1.76558 18.6905 1.92175L16.7797 3.83136L18.6905 5.74096C18.8423 5.89803 18.9263 6.10839 18.9244 6.32675C18.9225 6.5451 18.8349 6.75398 18.6804 6.90839C18.5259 7.06279 18.3169 7.15038 18.0984 7.15228C17.8799 7.15417 17.6694 7.07023 17.5122 6.91853L15.6014 5.00893L13.6905 6.91853C13.6131 6.99585 13.5212 7.05718 13.4201 7.099C13.3189 7.14083 13.2105 7.16233 13.1011 7.16229C12.9916 7.16226 12.8832 7.14067 12.7821 7.09878C12.681 7.05688 12.5892 6.99549 12.5118 6.91812C12.4344 6.84074 12.3731 6.74889 12.3312 6.64782C12.2894 6.54674 12.2678 6.43842 12.2679 6.32903C12.2679 6.21965 12.2895 6.11134 12.3314 6.01029C12.3734 5.90925 12.4348 5.81745 12.5122 5.74013L14.423 3.83136L12.5122 1.92175C12.4348 1.84438 12.3735 1.75253 12.3316 1.65146C12.2898 1.55038 12.2683 1.44206 12.2683 1.33267C12.2683 1.22328 12.2899 1.11498 12.3319 1.01393C12.3738 0.912886 12.4352 0.821082 12.5126 0.743762C12.5901 0.666441 12.682 0.605118 12.7831 0.563293C12.8842 0.521468 12.9926 0.499961 13.1021 0.5C13.2115 0.500039 13.3199 0.521622 13.421 0.563518C13.5221 0.605414 13.614 0.666803 13.6914 0.744178L15.6014 2.65378L17.5122 0.744178C17.6685 0.588053 17.8804 0.500347 18.1014 0.500347C18.3223 0.500347 18.5343 0.588053 18.6905 0.744178ZM11.5997 22.7592C12.1577 22.945 12.7588 22.9579 13.3242 22.7962C13.8896 22.6345 14.3929 22.3057 14.768 21.8531V30.5L4.76807 26.7333V20.484L11.5997 22.7592Z" fill="white"/>
<path id="Vector_2" fill-rule="evenodd" clip-rule="evenodd" d="M26.4345 26.7333L16.4346 30.5V21.8531C16.8097 22.3057 17.313 22.6345 17.8784 22.7962C18.4438 22.9579 19.0449 22.945 19.6029 22.7592L26.4345 20.484V26.7333ZM23.3645 25.0252C23.5743 24.9554 23.7477 24.8052 23.8466 24.6076C23.9455 24.4101 23.9619 24.1813 23.892 23.9717C23.8222 23.7621 23.6719 23.5888 23.4742 23.4899C23.2765 23.3911 23.0476 23.3748 22.8379 23.4445L19.0879 24.6937C18.8781 24.7635 18.7047 24.9137 18.6058 25.1113C18.5069 25.3089 18.4906 25.5376 18.5604 25.7472C18.6302 25.9568 18.7805 26.1301 18.9782 26.229C19.1759 26.3279 19.4048 26.3442 19.6146 26.2744L23.3645 25.0252ZM15.8737 8.04114C15.6972 7.9801 15.5053 7.9801 15.3287 8.04114L4.4971 11.7887L4.47793 11.7946C4.33222 11.8485 4.2046 11.9423 4.1096 12.0652L0.784611 16.2192C0.700629 16.3239 0.643219 16.4474 0.617269 16.5791C0.591318 16.7108 0.597597 16.8468 0.63557 16.9755C0.673543 17.1042 0.742086 17.2219 0.835361 17.3184C0.928635 17.415 1.04388 17.4876 1.17128 17.53L12.4212 21.2776C12.5916 21.3342 12.7757 21.3343 12.9461 21.2779C13.1166 21.2215 13.2642 21.1115 13.3671 20.9645L15.6012 17.7749L17.8346 20.9645C17.9375 21.1117 18.0853 21.2217 18.2559 21.2782C18.4265 21.3346 18.6107 21.3344 18.7812 21.2776L30.0312 17.53C30.1587 17.4877 30.274 17.4151 30.3674 17.3186C30.4607 17.2221 30.5294 17.1045 30.5674 16.9757C30.6055 16.847 30.6118 16.711 30.5859 16.5792C30.56 16.4475 30.5027 16.324 30.4187 16.2192L27.0937 12.0652C26.9943 11.9367 26.8592 11.8403 26.7054 11.7879L15.8737 8.04114ZM15.6012 15.4422L23.887 12.5757L15.6012 9.70924L7.31543 12.5757L15.6012 15.4422Z" fill="white"/>
</g>
</svg>
