<svg width="31" height="31" viewBox="0 0 31 31" fill="none" xmlns="http://www.w3.org/2000/svg">
<g id="FINANCEIRO">
<path id="FINANCEIRO_2" d="M15.3515 14.125C12.514 13.3875 11.6015 12.625 11.6015 11.4375C11.6015 10.075 12.864 9.125 14.9765 9.125C17.2015 9.125 18.0265 10.1875 18.1015 11.75H20.864C20.7765 9.6 19.464 7.625 16.8515 6.9875V4.25H13.1015V6.95C10.6765 7.475 8.72646 9.05 8.72646 11.4625C8.72646 14.35 11.114 15.7875 14.6015 16.625C17.7265 17.375 18.3515 18.475 18.3515 19.6375C18.3515 20.5 17.739 21.875 14.9765 21.875C12.4015 21.875 11.389 20.725 11.2515 19.25H8.50146C8.65146 21.9875 10.7015 23.525 13.1015 24.0375V26.75H16.8515V24.0625C19.289 23.6 21.2265 22.1875 21.2265 19.625C21.2265 16.075 18.189 14.8625 15.3515 14.125Z" fill="#EBEBEB"/>
</g>
</svg>
