<svg width="31" height="31" viewBox="0 0 31 31" fill="none" xmlns="http://www.w3.org/2000/svg">
<g id="Group">
<g id="Group_2">
<path id="Vector" d="M4.16473 3.16845L0.601562 5.81148V16.9935C0.601562 26.1425 0.618693 28.2264 0.704346 28.4679C1.04696 29.4209 2.0234 30.1579 3.32533 30.412C3.85638 30.5137 27.1198 30.5391 27.7707 30.4247C29.0898 30.2087 30.2204 29.37 30.5116 28.3916C30.6315 27.9469 30.6315 3.04138 30.5116 2.59664C30.2375 1.63091 29.1926 0.843086 27.8735 0.576241C27.5652 0.512707 25.5951 0.5 17.6123 0.5H7.74503L4.16473 3.16845ZM16.1562 3.70214C16.4816 3.8292 16.5844 3.99439 16.6358 4.48996L16.6701 4.922L17.1497 4.99824C17.4067 5.03636 17.8521 5.13801 18.1604 5.21426C19.9763 5.72253 21.4495 7.05675 21.4838 8.20037C21.5009 8.59429 21.3125 8.82301 20.8842 8.95008C20.3018 9.10256 19.7879 8.84843 19.6508 8.32744C19.3939 7.38713 18.3146 6.61201 16.9956 6.38329L16.653 6.33246V6.92968C16.653 7.26006 16.6358 8.00977 16.6016 8.59429L16.5502 9.64896L16.7729 9.68708C20.0619 10.1954 21.381 11.0721 21.381 12.7876C21.381 13.7406 21.0384 14.4013 20.2161 15.0494C19.4452 15.6593 18.2975 16.0405 16.8585 16.193L16.4816 16.2311V16.6505C16.4816 17.1206 16.3789 17.2731 16.002 17.4256C15.7108 17.5399 15.4195 17.5399 15.1283 17.4256C14.7857 17.2985 14.6487 17.0571 14.6487 16.5869V16.1803L14.2889 16.1422C13.5694 16.0659 12.7129 15.8626 12.0619 15.6339C10.8799 15.2146 10.0748 14.4522 9.78357 13.4737C9.66366 13.0925 9.66366 13.0544 9.80071 12.8511C9.90349 12.6986 10.0577 12.5843 10.2632 12.5207C10.5545 12.4191 10.6058 12.4191 10.8971 12.4953C11.2739 12.597 11.5309 12.8511 11.5994 13.1942C11.6679 13.5373 12.0106 13.982 12.3189 14.1599C12.4731 14.2361 12.7643 14.3759 13.0041 14.4522C13.4153 14.5919 14.5288 14.8207 14.5973 14.7698C14.6144 14.7571 14.6487 13.8804 14.6658 12.8257L14.7172 10.9196L14.3061 10.8815C13.5009 10.8053 12.4217 10.5639 11.8735 10.3478C11.0684 10.0429 10.3146 9.47106 10.0748 9.01361C9.54375 7.97165 9.92062 6.85344 11.0855 6.0402C11.8906 5.46839 12.8328 5.15072 14.1176 4.99824L14.7172 4.922L14.7686 4.47726C14.82 4.08334 14.8542 4.01981 15.0769 3.84191C15.3853 3.58777 15.7622 3.54965 16.1562 3.70214ZM24.2932 19.9542C24.6872 20.2465 24.5844 20.7548 24.0705 20.9454C23.8307 21.0343 7.52233 21.0343 7.16259 20.9454C6.61441 20.8056 6.47736 20.2719 6.90563 19.9542L7.12833 19.7891H15.608H24.0705L24.2932 19.9542ZM24.2932 23.1691C24.6016 23.4359 24.6016 23.7536 24.2932 24.0077L24.0705 24.1983H15.6251C7.28251 24.1983 7.17972 24.1983 7.00841 24.084C6.76859 23.9315 6.61441 23.652 6.6658 23.4613C6.71719 23.2835 7.04268 23.0293 7.2825 22.9912C7.36816 22.9785 11.1883 22.9658 15.745 22.9785H24.0705L24.2932 23.1691ZM24.139 26.2442C24.4303 26.3585 24.533 26.4983 24.533 26.8033C24.533 26.9939 24.4816 27.0828 24.3103 27.2226L24.0876 27.3878H15.608H7.16259L6.95702 27.248C6.54589 26.9812 6.56302 26.4729 7.02555 26.2696C7.26537 26.1552 7.47094 26.1552 15.5909 26.1552C22.8542 26.1552 23.9335 26.1679 24.139 26.2442Z" fill="#EBEBEB"/>
<path id="Vector_2" d="M13.7407 6.42149C12.4045 6.71375 11.7192 7.24744 11.7192 7.99715C11.7192 8.51813 11.9762 8.79768 12.7471 9.08994C13.004 9.17889 14.4087 9.47114 14.6143 9.47114C14.7171 9.47114 14.7171 9.19159 14.7171 7.89549V6.30713H14.4601C14.3402 6.31984 14.0147 6.35796 13.7407 6.42149Z" fill="#EBEBEB"/>
<path id="Vector_3" d="M16.5503 12.9272C16.5503 14.3885 16.5674 14.7952 16.6531 14.7952C16.91 14.7952 17.7837 14.6046 18.1606 14.4648C19.0342 14.1344 19.4796 13.6515 19.531 12.9145C19.5824 12.3681 19.4968 12.1267 19.1028 11.8345C18.6745 11.5168 17.8865 11.2499 16.7901 11.0848L16.5674 11.0466V12.9272H16.5503Z" fill="#EBEBEB"/>
</g>
</g>
</svg>
