<svg width="31" height="31" viewBox="0 0 31 31" fill="none" xmlns="http://www.w3.org/2000/svg">
<g id="OPERACIONAL ">
<path id="Vector" d="M11.8516 19.25C8.51406 19.25 1.85156 20.925 1.85156 24.25V26.75H21.8516V24.25C21.8516 20.925 15.1891 19.25 11.8516 19.25Z" fill="#EBEBEB"/>
<path id="Vector_2" d="M28.2266 9.05C28.2391 8.9125 28.2516 8.775 28.2516 8.625C28.2516 8.475 28.2391 8.3375 28.2141 8.2L29.1391 7.475C29.2266 7.4125 29.2391 7.2875 29.1891 7.2L28.3141 5.6875C28.2641 5.5875 28.1391 5.5625 28.0516 5.5875L26.9766 6.025C26.7516 5.85 26.5016 5.7125 26.2391 5.6L26.0766 4.4375C26.0516 4.325 25.9641 4.25 25.8516 4.25H24.1016C23.9891 4.25 23.9016 4.325 23.8891 4.4375L23.7266 5.6C23.4641 5.7125 23.2141 5.8625 22.9891 6.025L21.9016 5.5875C21.8016 5.55 21.6891 5.5875 21.6391 5.6875L20.7641 7.2C20.7141 7.3 20.7266 7.4125 20.8141 7.475L21.7391 8.2C21.7141 8.3375 21.7016 8.4875 21.7016 8.625C21.7016 8.7625 21.7141 8.9125 21.7391 9.05L20.8141 9.775C20.7266 9.8375 20.7141 9.9625 20.7641 10.05L21.6391 11.5625C21.6891 11.6625 21.8141 11.6875 21.9016 11.6625L22.9891 11.225C23.2141 11.4 23.4641 11.5375 23.7266 11.65L23.8891 12.8125C23.9016 12.925 23.9891 13 24.1016 13H25.8516C25.9641 13 26.0516 12.925 26.0641 12.8125L26.2266 11.65C26.4891 11.5375 26.7391 11.3875 26.9641 11.225L28.0516 11.6625C28.1516 11.7 28.2641 11.6625 28.3141 11.5625L29.1891 10.05C29.2391 9.95 29.2266 9.8375 29.1391 9.775L28.2266 9.05ZM24.9766 10.1875C24.1141 10.1875 23.4141 9.4875 23.4141 8.625C23.4141 7.7625 24.1141 7.0625 24.9766 7.0625C25.8391 7.0625 26.5391 7.7625 26.5391 8.625C26.5391 9.4875 25.8391 10.1875 24.9766 10.1875Z" fill="#EBEBEB"/>
<path id="Vector_3" d="M25.5017 15.1L24.8767 14.0125C24.8392 13.9375 24.7517 13.9125 24.6892 13.9375L23.9142 14.25C23.7517 14.125 23.5767 14.025 23.3892 13.95L23.2767 13.125C23.2517 13.05 23.1767 13 23.1017 13H21.8517C21.7767 13 21.7142 13.05 21.7017 13.1375L21.5892 13.9625C21.4017 14.0375 21.2267 14.15 21.0642 14.2625L20.2892 13.95C20.2142 13.925 20.1392 13.95 20.1017 14.025L19.4767 15.1125C19.4392 15.1875 19.4517 15.2625 19.5142 15.3125L20.1767 15.825C20.1642 15.925 20.1517 16.025 20.1517 16.125C20.1517 16.225 20.1642 16.3375 20.1767 16.425L19.5142 16.9375C19.4517 16.9875 19.4392 17.075 19.4767 17.1375L20.1017 18.225C20.1392 18.3 20.2267 18.325 20.2892 18.3L21.0642 17.9875C21.2267 18.1125 21.4017 18.2125 21.5892 18.2875L21.7017 19.1125C21.7142 19.2 21.7767 19.25 21.8517 19.25H23.1017C23.1767 19.25 23.2517 19.2 23.2517 19.1125L23.3642 18.2875C23.5517 18.2125 23.7267 18.1 23.8892 17.9875L24.6642 18.3C24.7392 18.325 24.8142 18.3 24.8517 18.225L25.4767 17.1375C25.5142 17.0625 25.5017 16.9875 25.4392 16.9375L24.7892 16.425C24.8017 16.325 24.8142 16.225 24.8142 16.125C24.8142 16.025 24.8017 15.9125 24.7892 15.825L25.4517 15.3125C25.5142 15.2625 25.5267 15.175 25.5017 15.1ZM22.4767 17.1625C21.9017 17.1625 21.4392 16.6875 21.4392 16.125C21.4392 15.55 21.9142 15.0875 22.4767 15.0875C23.0392 15.0875 23.5142 15.5625 23.5142 16.125C23.5142 16.7 23.0517 17.1625 22.4767 17.1625Z" fill="#EBEBEB"/>
<path id="Vector_4" d="M6.52656 11.75H17.1891C17.5266 11.75 17.8016 11.475 17.8016 11.1375V11.1125C17.8016 10.775 17.5266 10.5 17.1891 10.5H16.8516C16.8516 8.65 15.8391 7.0625 14.3516 6.1875V7.375C14.3516 7.725 14.0766 8 13.7266 8C13.3766 8 13.1016 7.725 13.1016 7.375V5.675C12.7016 5.575 12.2891 5.5 11.8516 5.5C11.4141 5.5 11.0016 5.575 10.6016 5.675V7.375C10.6016 7.725 10.3266 8 9.97656 8C9.62656 8 9.35156 7.725 9.35156 7.375V6.1875C7.86406 7.0625 6.85156 8.65 6.85156 10.5H6.52656C6.18906 10.5 5.91406 10.775 5.91406 11.1125V11.15C5.91406 11.475 6.18906 11.75 6.52656 11.75Z" fill="#EBEBEB"/>
<path id="Vector_5" d="M11.8514 16.75C14.1764 16.75 16.1139 15.15 16.6764 13H7.02637C7.58887 15.15 9.52637 16.75 11.8514 16.75Z" fill="#EBEBEB"/>
</g>
</svg>
