<svg width="31" height="31" viewBox="0 0 31 31" fill="none" xmlns="http://www.w3.org/2000/svg">
<g id="HOME">
<path id="HOME_2" d="M15.6016 0.5C15.2748 0.500021 14.9611 0.627969 14.7275 0.856445L1.09229 12.0088C1.07654 12.0206 1.06107 12.0328 1.0459 12.0454L0.999512 12.0845V12.0869C0.874141 12.2037 0.774121 12.345 0.705663 12.5021C0.637205 12.6592 0.601771 12.8287 0.601562 13C0.601563 13.3315 0.733259 13.6495 0.967679 13.8839C1.2021 14.1183 1.52004 14.25 1.85156 14.25H3.10156V28C3.10156 29.3813 4.22031 30.5 5.60156 30.5H25.6016C26.9828 30.5 28.1016 29.3813 28.1016 28V14.25H29.3516C29.6831 14.25 30.001 14.1183 30.2354 13.8839C30.4699 13.6495 30.6016 13.3315 30.6016 13C30.6017 12.8282 30.5664 12.6583 30.4979 12.5008C30.4295 12.3433 30.3293 12.2015 30.2036 12.0845L30.1841 12.0698C30.1567 12.045 30.1282 12.0213 30.0986 11.999L28.1016 10.3657V5.5C28.1016 4.81 27.5416 4.25 26.8516 4.25H25.6016C24.9116 4.25 24.3516 4.81 24.3516 5.5V7.29932L16.4487 0.834473C16.2185 0.620408 15.916 0.500982 15.6016 0.5ZM19.3516 16.75H24.3516V26.75H19.3516V16.75Z" fill="#EBEBEB"/>
</g>
</svg>
