<svg width="36" height="36" viewBox="0 0 36 36" fill="none" xmlns="http://www.w3.org/2000/svg">
<path d="M26.3972 23.2161H24.729L24.1377 22.6462C26.6717 19.6916 27.9809 15.6607 27.263 11.3765C26.2705 5.50955 21.3714 0.824388 15.4587 0.106842C6.52638 -0.990582 -0.991163 6.52255 0.106904 15.4497C0.824872 21.3589 5.51278 26.2551 11.3832 27.247C15.6699 27.9645 19.7032 26.6561 22.6595 24.1235L23.2297 24.7145V26.3817L32.2043 35.351C33.0701 36.2163 34.4849 36.2163 35.3507 35.351C36.2164 34.4858 36.2164 33.0718 35.3507 32.2065L26.3972 23.2161ZM13.7272 23.2161C8.46911 23.2161 4.22466 18.9741 4.22466 13.7191C4.22466 8.46415 8.46911 4.22218 13.7272 4.22218C18.9852 4.22218 23.2297 8.46415 23.2297 13.7191C23.2297 18.9741 18.9852 23.2161 13.7272 23.2161Z" fill="white"/>
</svg>
