<svg width="31" height="31" viewBox="0 0 31 31" fill="none" xmlns="http://www.w3.org/2000/svg">
<path d="M7.22183 0.581814C7.14553 0.607222 7.0438 0.708853 6.9675 0.797781L6.84033 0.950229V7.64523V14.3529L7.06923 14.3148C7.89582 14.1878 8.91315 14.2386 9.85419 14.4292C11.3039 14.734 12.7536 15.4709 13.9362 16.5126L14.4703 16.9827L14.6229 16.8683C14.7628 16.754 14.8518 16.7413 16.1744 16.7413C18.209 16.7413 18.0946 16.6396 18.0946 18.6469C18.0946 19.8538 18.0819 20.057 17.9929 20.2095C17.8403 20.4635 17.5859 20.5525 17.0137 20.5525C16.7339 20.5525 16.505 20.5525 16.505 20.5652C16.505 20.5779 16.5559 20.8193 16.6195 21.1114C16.7085 21.518 16.8484 22.674 16.8484 22.9662C16.8484 22.9916 17.0264 23.017 17.2553 23.017C17.6241 23.017 17.6877 23.0297 17.853 23.1822L18.0437 23.3473V24.8845V26.4217L17.853 26.5869L17.6622 26.752H16.8102H15.9582L15.8056 27.0442C15.2079 28.213 14.2287 29.3182 13.0588 30.1694L12.601 30.4997H21.3246C30.9512 30.4997 30.3408 30.5251 30.5061 30.1186C30.6332 29.8137 30.6332 1.1916 30.5061 0.874005C30.3408 0.467478 31.2309 0.492886 18.6796 0.50559C12.4484 0.530998 7.29813 0.556406 7.22183 0.581814ZM28.1281 5.51096L28.1408 8.01364H18.7304H9.32009V5.49825V2.98287L18.7177 2.99557L28.1153 3.00827L28.1281 5.51096ZM12.7154 10.5926C13.0969 10.7831 13.1351 10.9229 13.1097 12.4727C13.0969 13.9591 13.0842 14.0099 12.7663 14.2005C12.6264 14.2767 12.3975 14.2894 11.2149 14.2894C9.20564 14.2894 9.30737 14.391 9.30737 12.3838C9.30737 10.8466 9.3328 10.745 9.67615 10.5798C9.98135 10.4401 12.423 10.4401 12.7154 10.5926ZM17.7385 10.5798C18.0946 10.745 18.12 10.8466 18.12 12.3838C18.12 14.391 18.2218 14.2894 16.2125 14.2894C14.6738 14.2894 14.5721 14.2767 14.4068 13.9083C14.3305 13.7431 14.3177 13.4891 14.3177 12.3965C14.3177 10.4274 14.2669 10.4782 16.238 10.4782C17.3189 10.4782 17.5732 10.5036 17.7385 10.5798ZM22.7108 10.5671C23.0923 10.7196 23.0923 10.7577 23.0923 12.3965V13.8829L22.9269 14.0734L22.7616 14.264H21.2229H19.6842L19.5189 14.0734L19.3535 13.8829V12.3965C19.3535 10.7577 19.3535 10.7323 19.735 10.5671C19.9767 10.4528 22.431 10.4528 22.7108 10.5671ZM27.7211 10.5926C28.0899 10.7831 28.1281 10.9356 28.1281 12.4092C28.1281 14.3783 28.2044 14.2894 26.2206 14.2894C24.2113 14.2894 24.3131 14.391 24.3131 12.3838C24.3131 10.8466 24.3385 10.745 24.6818 10.5798C24.987 10.4401 27.4286 10.4401 27.7211 10.5926ZM22.9269 16.9699L23.0923 17.1605V18.6469C23.0923 20.2857 23.0923 20.3238 22.7108 20.4762C22.431 20.5906 20.0148 20.5906 19.735 20.4762C19.3535 20.3238 19.3535 20.2857 19.3535 18.6342V17.1478L19.557 16.9445L19.7605 16.7413L21.261 16.754L22.7743 16.7667L22.9269 16.9699ZM27.7847 16.8429C28.1535 17.0335 28.1408 16.881 28.1408 21.7594C28.1408 26.5233 28.1408 26.4598 27.8483 26.6758C27.7338 26.752 27.5049 26.7647 26.2333 26.7647H24.7454L24.5547 26.5996L24.3639 26.4344L24.3512 21.8737C24.3385 18.4563 24.3512 17.2748 24.4148 17.1478C24.4529 17.0589 24.5674 16.9318 24.6564 16.8683C24.8217 16.7667 24.9743 16.754 26.2333 16.754C27.3269 16.754 27.6448 16.7667 27.7847 16.8429ZM22.7998 23.106C23.0795 23.2584 23.105 23.3855 23.105 24.8972C23.105 26.409 23.0795 26.5487 22.7998 26.6885C22.5836 26.8028 19.9004 26.8155 19.6715 26.7012C19.3663 26.5615 19.3535 26.4344 19.3535 24.8845C19.3535 23.3728 19.379 23.2584 19.646 23.106C19.8495 22.9789 22.5709 22.9789 22.7998 23.106Z" fill="#EBEBEB"/>
<path d="M7.52714 15.5599C5.98842 15.7377 4.99652 16.0807 3.86474 16.843C3.3052 17.2241 2.27515 18.2404 1.90637 18.7994C0.927182 20.2857 0.469382 22.0262 0.634699 23.6777C0.787299 25.037 1.1688 26.1296 1.90637 27.2348C2.27515 27.7938 3.3052 28.8228 3.86474 29.1912C5.33987 30.1694 7.10749 30.6268 8.73523 30.4616C10.6046 30.2584 12.0797 29.5723 13.3641 28.2892C15.9202 25.7357 16.2889 21.8356 14.267 18.7994C13.8855 18.2404 12.8681 17.2114 12.3086 16.843C11.5075 16.3094 10.5537 15.9029 9.63811 15.7123C8.98956 15.5599 8.04852 15.4963 7.52714 15.5599ZM8.72251 18.5707L8.73523 19.1424L9.00228 19.2059C9.56181 19.3456 10.0705 19.7268 10.3375 20.1714C10.4901 20.4382 10.63 20.9209 10.6809 21.3275L10.719 21.6069H9.93059H9.14216V21.4418C9.14216 21.1496 9.01499 20.8447 8.82424 20.616C8.64621 20.4255 8.59534 20.4001 8.25199 20.3874C7.94679 20.3747 7.84506 20.3874 7.67974 20.489C7.45084 20.6287 7.31096 20.9209 7.31096 21.2512C7.31096 21.7721 7.55257 22.0135 8.41731 22.3819C9.95603 23.0425 10.5028 23.5379 10.6427 24.4653C10.7445 25.0624 10.5919 25.6976 10.2612 26.1423C9.98146 26.5107 9.42193 26.8029 8.76066 26.9426C8.60806 26.9807 8.60806 26.9934 8.58263 27.4889L8.56991 27.997L8.15026 28.0098L7.71789 28.0225V27.5016V26.9807L7.41269 26.9172C6.28091 26.6885 5.61964 25.939 5.46704 24.7321L5.42889 24.4526H6.21732H7.00576V24.6051C7.00576 25.1005 7.33639 25.5706 7.76876 25.6849C8.49361 25.8755 9.11673 25.4817 9.11673 24.8465C9.11673 24.3256 8.79881 23.9953 8.03581 23.6904C6.33177 23.0171 5.75952 22.4073 5.7468 21.2639C5.7468 20.6414 5.87397 20.273 6.24276 19.8538C6.57339 19.4854 7.10749 19.2059 7.52714 19.1424L7.81962 19.1043V18.5199V17.9355L8.25199 17.9482L8.67164 17.9609L8.72251 18.5707Z" fill="#EBEBEB"/>
</svg>
