<svg width="31" height="31" viewBox="0 0 31 31" fill="none" xmlns="http://www.w3.org/2000/svg">
<path d="M8.6781 6.10831H20.4905C20.888 6.10831 21.2059 5.85396 21.2059 5.52332V2.85269C21.2059 2.52204 20.888 2.2677 20.4905 2.2677H18.0263C17.8673 1.26304 16.818 0.5 15.562 0.5H13.7655C12.5096 0.5 11.4444 1.27575 11.3013 2.2677H8.69399C8.29654 2.2677 7.97857 2.52204 7.97857 2.85269V5.52332C7.96267 5.84125 8.29654 6.10831 8.6781 6.10831ZM14.6717 2.21683C15.3395 2.21683 15.8959 2.66193 15.8959 3.22149C15.8959 3.76833 15.3554 4.22616 14.6717 4.22616C14.004 4.22616 13.4476 3.78105 13.4476 3.22149C13.4476 2.66193 14.004 2.21683 14.6717 2.21683Z" fill="#EBEBEB"/>
<path d="M23.5744 19.0798C19.6952 19.0798 16.5474 21.636 16.5474 24.7899C16.5474 27.9438 19.6952 30.4999 23.5744 30.4999C27.4536 30.4999 30.6014 27.9438 30.6014 24.7899C30.6014 21.636 27.4536 19.0798 23.5744 19.0798ZM23.161 27.9183C22.7318 28.2744 22.0164 28.2744 21.5712 27.9183L19.1229 25.9217C18.6936 25.5656 18.6936 24.9934 19.1229 24.6373C19.5521 24.2812 20.2676 24.2812 20.7127 24.6373L22.3661 25.9853L27.0402 22.1956C27.4695 21.8395 28.1849 21.8395 28.63 22.1956C29.0593 22.5516 29.0593 23.1239 28.63 23.48L23.161 27.9183Z" fill="#EBEBEB"/>
<path d="M5.22795 23.1622H13.4474C13.7335 21.9668 14.3377 20.8604 15.1803 19.9193H5.22795C4.11508 19.9193 3.20888 19.1817 3.20888 18.2787C3.20888 17.3758 4.11508 16.6382 5.22795 16.6382H21.3329C22.0324 16.5111 22.7637 16.4475 23.5268 16.4475C25.5936 16.4475 27.5014 16.9434 29.1071 17.7955V7.62169C29.1071 5.7141 27.1993 4.1626 24.8623 4.1626H23.972V7.63441H5.37104V4.1626H4.8464C2.50935 4.1626 0.601562 5.7141 0.601562 7.62169V25.6929C0.601562 27.6005 2.50935 29.152 4.8464 29.152H14.7828C14.1628 28.3254 13.7017 27.4097 13.4632 26.4305H5.22795C4.11508 26.4305 3.20888 25.6929 3.20888 24.79C3.20888 23.8871 4.11508 23.1622 5.22795 23.1622ZM5.22795 10.1143H24.3694C25.4823 10.1143 26.3885 10.8519 26.3885 11.7548C26.3885 12.6577 25.4823 13.3953 24.3694 13.3953H5.22795C4.11508 13.3953 3.20888 12.6577 3.20888 11.7548C3.20888 10.8519 4.11508 10.1143 5.22795 10.1143Z" fill="#EBEBEB"/>
</svg>
