<svg width="31" height="31" viewBox="0 0 31 31" fill="none" xmlns="http://www.w3.org/2000/svg">
<g id="RH">
<path id="RH_2" d="M23.7834 0.5C22.6984 0.5 21.6579 0.931005 20.8907 1.6982C20.1235 2.46539 19.6925 3.50593 19.6925 4.59091C19.6925 5.67589 20.1235 6.71642 20.8907 7.48362C21.6579 8.25081 22.6984 8.68182 23.7834 8.68182C24.8684 8.68182 25.9089 8.25081 26.6761 7.48362C27.4433 6.71642 27.8743 5.67589 27.8743 4.59091C27.8743 3.50593 27.4433 2.46539 26.6761 1.6982C25.9089 0.931005 24.8684 0.5 23.7834 0.5ZM13.5561 1.86364C12.652 1.86364 11.7848 2.22281 11.1455 2.86214C10.5062 3.50146 10.147 4.36858 10.147 5.27273C10.147 6.17687 10.5062 7.04399 11.1455 7.68332C11.7848 8.32265 12.652 8.68182 13.5561 8.68182C14.4603 8.68182 15.3274 8.32265 15.9667 7.68332C16.606 7.04399 16.9652 6.17687 16.9652 5.27273C16.9652 4.36858 16.606 3.50146 15.9667 2.86214C15.3274 2.22281 14.4603 1.86364 13.5561 1.86364ZM4.69247 3.22727C3.96915 3.22727 3.27546 3.51461 2.764 4.02607C2.25254 4.53754 1.9652 5.23123 1.9652 5.95455C1.9652 6.67786 2.25254 7.37156 2.764 7.88302C3.27546 8.39448 3.96915 8.68182 4.69247 8.68182C5.41579 8.68182 6.10948 8.39448 6.62094 7.88302C7.13241 7.37156 7.41974 6.67786 7.41974 5.95455C7.41974 5.23123 7.13241 4.53754 6.62094 4.02607C6.10948 3.51461 5.41579 3.22727 4.69247 3.22727ZM4.69247 11.4091C2.43293 11.4091 0.601562 13.2405 0.601562 15.5V23.6818C0.601562 24.4345 1.21247 25.0455 1.9652 25.0455H7.41974V26.4091C7.41974 27.1618 8.03065 27.7727 8.78338 27.7727H16.9652V29.1364C16.9652 29.8891 17.5761 30.5 18.3288 30.5H29.2379C29.9907 30.5 30.6016 29.8891 30.6016 29.1364V19.5909C30.6016 15.8259 27.5484 12.7727 23.7834 12.7727C21.9131 12.7727 20.2213 13.5292 18.9893 14.7489C17.9697 12.7736 15.932 11.4091 13.5561 11.4091C11.4614 11.4091 9.61631 12.4622 8.50906 14.0645C7.92631 12.5159 6.44487 11.4091 4.69247 11.4091Z" fill="#EBEBEB"/>
</g>
</svg>
