<svg width="36" height="36" viewBox="0 0 36 36" fill="none" xmlns="http://www.w3.org/2000/svg">
<path d="M17.9855 0.272728C11.8917 0.272728 6.91832 4.73385 6.91832 10.2V13.0364H3.75626C2.00923 13.0364 0.594208 14.3056 0.594208 15.8727V32.8909C0.594208 34.458 2.00923 35.7273 3.75626 35.7273H32.2148C33.9618 35.7273 35.3768 34.458 35.3768 32.8909V15.8727C35.3768 14.3056 33.9618 13.0364 32.2148 13.0364H29.0527V10.2C29.0527 4.91243 24.3675 0.653602 18.5475 0.375214C18.3687 0.310608 18.1782 0.275875 17.9855 0.272728ZM17.9855 3.10909C22.3708 3.10909 25.8906 6.26644 25.8906 10.2V13.0364H10.0804V10.2C10.0804 6.26644 13.6003 3.10909 17.9855 3.10909Z" fill="white"/>
</svg>
