<svg width="38" height="25" viewBox="0 0 38 25" fill="none" xmlns="http://www.w3.org/2000/svg">
<path d="M19 0C10.3636 0 2.98818 5.18333 0 12.5C2.98818 19.8167 10.3636 25 19 25C27.6364 25 35.0118 19.8167 38 12.5C35.0118 5.18333 27.6364 0 19 0ZM19 20.8333C14.2327 20.8333 10.3636 17.1 10.3636 12.5C10.3636 7.9 14.2327 4.16667 19 4.16667C23.7673 4.16667 27.6364 7.9 27.6364 12.5C27.6364 17.1 23.7673 20.8333 19 20.8333ZM19 7.5C16.1327 7.5 13.8182 9.73333 13.8182 12.5C13.8182 15.2667 16.1327 17.5 19 17.5C21.8673 17.5 24.1818 15.2667 24.1818 12.5C24.1818 9.73333 21.8673 7.5 19 7.5Z" fill="#FF7A00"/>
</svg>
