<svg width="38" height="25" viewBox="0 0 38 25" fill="none" xmlns="http://www.w3.org/2000/svg">
<path d="M19 4.95566C23.7673 4.95566 27.6364 8.0116 27.6364 11.7769C27.6364 12.4727 27.4636 13.1412 27.2218 13.7688L32.5073 17.9434C34.9082 16.2654 36.8082 14.1644 38 11.7633C35.0118 5.78786 27.6364 1.54502 19 1.54502C16.8064 1.54502 14.6991 1.81787 12.7127 2.32265L16.4609 5.28308C17.2727 5.09209 18.1191 4.95566 19 4.95566ZM2.95364 0.399045C2.28 0.931105 2.28 1.79059 2.95364 2.32265L6.35636 5.01023C3.55818 6.77012 1.33 9.08936 0 11.7769C2.98818 17.766 10.3636 22.0089 19 22.0089C21.6255 22.0089 24.13 21.5996 26.4445 20.8902L31.1427 24.601C31.8164 25.133 32.9045 25.133 33.5782 24.601C34.2518 24.0689 34.2518 23.2094 33.5782 22.6774L5.40636 0.399045C4.73273 -0.133015 3.62727 -0.133015 2.95364 0.399045ZM19 18.5982C14.2327 18.5982 10.3636 15.5423 10.3636 11.7769C10.3636 10.7265 10.6745 9.73056 11.21 8.85744L13.9218 10.9993C13.87 11.2449 13.8182 11.5041 13.8182 11.7769C13.8182 14.0416 16.1327 15.8697 19 15.8697C19.3455 15.8697 19.6564 15.8288 19.9845 15.7742L22.6964 17.9161C21.5736 18.3527 20.33 18.5982 19 18.5982ZM24.13 11.3267C23.8709 9.41678 21.9709 7.92974 19.57 7.7251L24.13 11.3267Z" fill="#FF7A00"/>
</svg>
