<svg width="30" height="30" viewBox="0 0 30 30" fill="none" xmlns="http://www.w3.org/2000/svg">
<path d="M18.75 19.9996V17.4995C19.3125 17.2207 20.9212 15.3056 21.09 13.8093C21.5325 13.7756 22.2275 13.3693 22.4325 11.7655C22.5425 10.9042 22.105 10.4204 21.84 10.2679C21.84 10.2679 22.5 9.01413 22.5 7.50031C22.5 4.46519 21.3088 1.87508 18.75 1.87508C18.75 1.87508 17.8612 0 15 0C9.6975 0 7.5 3.40139 7.5 7.50031C7.5 8.88037 8.16 10.2679 8.16 10.2679C7.895 10.4204 7.4575 10.9055 7.5675 11.7655C7.7725 13.3693 8.4675 13.7756 8.91 13.8093C9.07875 15.3056 10.6875 17.2207 11.25 17.4995V19.9996C10 23.7497 0 21.2496 0 30H30C30 21.2496 20 23.7497 18.75 19.9996Z" fill="white"/>
</svg>
