<svg width="148" height="133" viewBox="0 0 148 133" fill="none" xmlns="http://www.w3.org/2000/svg">
<path d="M114.364 0C109.011 7.16755e-08 103.878 1.91079 100.093 5.31202C96.3081 8.71325 94.1818 13.3263 94.1818 18.1364C94.1818 22.9464 96.3081 27.5595 100.093 30.9607C103.878 34.3619 109.011 36.2727 114.364 36.2727C119.716 36.2727 124.85 34.3619 128.634 30.9607C132.419 27.5595 134.545 22.9464 134.545 18.1364C134.545 13.3263 132.419 8.71325 128.634 5.31202C124.85 1.91079 119.716 7.16755e-08 114.364 0ZM63.9091 6.04545C59.4486 6.04545 55.1709 7.63778 52.0168 10.4721C48.8628 13.3065 47.0909 17.1507 47.0909 21.1591C47.0909 25.1675 48.8628 29.0117 52.0168 31.846C55.1709 34.6804 59.4486 36.2727 63.9091 36.2727C68.3695 36.2727 72.6473 34.6804 75.8013 31.846C78.9554 29.0117 80.7273 25.1675 80.7273 21.1591C80.7273 17.1507 78.9554 13.3065 75.8013 10.4721C72.6473 7.63778 68.3695 6.04545 63.9091 6.04545ZM20.1818 12.0909C16.6135 12.0909 13.1912 13.3648 10.668 15.6323C8.1448 17.8997 6.72727 20.9751 6.72727 24.1818C6.72727 27.3885 8.1448 30.4639 10.668 32.7314C13.1912 34.9989 16.6135 36.2727 20.1818 36.2727C23.7502 36.2727 27.1724 34.9989 29.6956 32.7314C32.2188 30.4639 33.6364 27.3885 33.6364 24.1818C33.6364 20.9751 32.2188 17.8997 29.6956 15.6323C27.1724 13.3648 23.7502 12.0909 20.1818 12.0909ZM20.1818 48.3636C9.03473 48.3636 0 56.4827 0 66.5V102.773C0 106.11 3.01382 108.818 6.72727 108.818H33.6364V114.864C33.6364 118.201 36.6502 120.909 40.3636 120.909H80.7273V126.955C80.7273 130.292 83.7411 133 87.4545 133H141.273C144.986 133 148 130.292 148 126.955V84.6364C148 67.9449 132.938 54.4091 114.364 54.4091C105.137 54.4091 96.7907 57.7626 90.7131 63.1703C85.683 54.4129 75.6301 48.3636 63.9091 48.3636C53.5753 48.3636 44.4728 53.0324 39.0103 60.1357C36.1354 53.2707 28.827 48.3636 20.1818 48.3636Z" fill="#EBEBEB"/>
</svg>
