<svg width="30" height="30" viewBox="0 0 30 30" fill="none" xmlns="http://www.w3.org/2000/svg">
<path d="M11.9101 1.87462C12.1591 1.32075 12.5862 0.846413 13.1367 0.512422C13.6873 0.178431 14.3361 0 15 0C15.6639 0 16.3127 0.178431 16.8633 0.512422C17.4138 0.846413 17.8409 1.32075 18.0899 1.87462C20.5545 2.48458 22.7284 3.80575 24.2778 5.63523C25.8272 7.4647 26.6664 9.70131 26.6665 12.0016V19.0463L29.7198 23.1679C29.8872 23.3938 29.9834 23.6563 29.998 23.9275C30.0127 24.1987 29.9452 24.4684 29.8029 24.7079C29.6605 24.9473 29.4486 25.1474 29.1898 25.287C28.9309 25.4265 28.6348 25.5002 28.3331 25.5001H20.7749C20.5742 26.7497 19.88 27.8923 18.8194 28.7187C17.7589 29.5451 16.4029 30 15 30C13.5971 30 12.2411 29.5451 11.1806 28.7187C10.12 27.8923 9.42577 26.7497 9.2251 25.5001H1.66689C1.36516 25.5002 1.06907 25.4265 0.810221 25.287C0.551372 25.1474 0.33947 24.9473 0.197123 24.7079C0.0547758 24.4684 -0.012676 24.1987 0.00196305 23.9275C0.0166021 23.6563 0.112783 23.3938 0.280245 23.1679L3.33353 19.0463V12.0016C3.33353 7.16606 6.9668 3.09249 11.9101 1.87462ZM12.6434 25.5001C12.8155 25.9391 13.1347 26.3191 13.5569 26.588C13.9791 26.8568 14.4836 27.0012 15.0008 27.0012C15.5181 27.0012 16.0225 26.8568 16.4448 26.588C16.867 26.3191 17.1862 25.9391 17.3583 25.5001H12.6417H12.6434ZM15 4.50234C12.7899 4.50234 10.6703 5.29244 9.10754 6.69881C7.54476 8.10519 6.66681 10.0126 6.66681 12.0016V19.5008C6.66688 19.797 6.56945 20.0867 6.38681 20.3332L4.78184 22.5005H25.2165L23.6115 20.3332C23.4295 20.0865 23.3326 19.7969 23.3332 19.5008V12.0016C23.3332 10.0126 22.4552 8.10519 20.8925 6.69881C19.3297 5.29244 17.2101 4.50234 15 4.50234Z" fill="white"/>
</svg>
