<svg width="41" height="28" viewBox="0 0 41 28" fill="none" xmlns="http://www.w3.org/2000/svg">
<path d="M1.66663 14C13.1449 -3.33333 28.4493 -3.33333 39.9275 14C28.4493 31.3333 13.1449 31.3333 1.66663 14Z" stroke="#FF7A00" stroke-width="2" stroke-linejoin="round"/>
<path d="M27.1739 14C27.1739 15.7239 26.5021 17.3772 25.3062 18.5962C24.1103 19.8152 22.4883 20.5 20.7971 20.5C19.1059 20.5 17.4839 19.8152 16.288 18.5962C15.0921 17.3772 14.4203 15.7239 14.4203 14C14.4203 12.2761 15.0921 10.6228 16.288 9.40381C17.4839 8.18482 19.1059 7.5 20.7971 7.5C22.4883 7.5 24.1103 8.18482 25.3062 9.40381C26.5021 10.6228 27.1739 12.2761 27.1739 14Z" stroke="#FF7A00" stroke-width="2" stroke-linejoin="round"/>
</svg>
